<?xml version="1.0" encoding="UTF-8"?>
<svg width="100px" height="24px" viewBox="0 0 100 24" version="1.1" xmlns="http://www.w3.org/2000/svg" xmlns:xlink="http://www.w3.org/1999/xlink" xmlns:sketch="http://www.bohemiancoding.com/sketch/ns">
    <!-- Generator: Sketch 3.3 (11970) - http://www.bohemiancoding.com/sketch -->
    <title>Group</title>
    <desc>Created with Sketch.</desc>
    <defs></defs>
    <g id="Page-1" stroke="none" stroke-width="1" fill="none" fill-rule="evenodd" sketch:type="MSPage">
        <g id="webfire-wht" sketch:type="MSLayerGroup" fill="#FFFFFF">
            <g id="Group" sketch:type="MSShapeGroup">
                <path d="M0,6.411 L3.59,6.411 L6,18.241 L6.064,18.241 L10.1,6.411 L13.4,6.411 L17.183,18.211 L17.247,18.211 L19.972,6.411 L23.5,6.411 L19.427,23.4 L15.9,23.4 L11.765,10.643 L11.7,10.643 L7.245,23.4 L3.751,23.4 L0,6.411 Z" id="Shape"></path>
                <path d="M38.885,19.908 C37.4454511,22.4307854 34.7356393,23.9580081 31.832,23.883 C27.216,23.883 23.85,20.42 23.85,14.907 C23.85,9.394 27.216,5.931 31.672,5.931 C36.096,5.931 39.398,9.331 39.398,14.907 L39.398,16 L27.537,16 C27.637,18.757 29.076,20.648 31.768,20.648 C33.6878327,20.6079309 35.4224268,19.4928899 36.256,17.763 L38.885,19.908 Z M35.84,13.24 C35.711,10.964 34.397,9.168 31.672,9.168 C29.4232189,9.17930096 27.5987107,10.9913491 27.572,13.24 L35.84,13.24 Z" id="Shape"></path>
                <path d="M41.417,0 L45.072,0 L45.072,8.046 L45.136,8.046 C46.2216581,6.69909142 47.8620561,5.92049139 49.592,5.931 C53.759,5.931 56.901,9.457 56.901,14.907 C56.901,20.357 54.016,23.883 49.528,23.883 C47.739422,23.9105481 46.0329234,23.1338325 44.879,21.767 L44.815,21.767 L44.815,23.4 L41.415,23.4 L41.417,0 Z M45.072,16.894 C45.0692358,17.9122109 45.4880108,18.8861596 46.2289016,19.5846164 C46.9697925,20.2830732 47.9667204,20.6437439 48.983,20.581 C51.675,20.581 53.246,18.625 53.246,14.907 C53.246,11.189 51.675,9.232 48.983,9.232 C47.9490538,9.18592355 46.942138,9.56978792 46.2012658,10.2924746 C45.4603936,11.0151613 45.0516286,12.0122282 45.072,13.047 L45.072,16.894 Z" id="Shape"></path>
                <path d="M59.962,9.553 L57.082,9.553 L57.082,6.411 L60.059,6.411 L60.059,3.943 C60.059,0.9 61.725,0 64.258,0 L66.823,0 L66.823,3.238 L65,3.238 C63.878,3.238 63.526,3.59 63.526,4.777 L63.526,6.411 L73.141,6.411 L73.141,23.4 L69.482,23.4 L69.482,9.553 L63.617,9.553 L63.617,23.4 L59.962,23.4 L59.962,9.553 Z M69.418,0 L73.2,0 L73.2,3.622 L69.418,3.622 L69.418,0 Z" id="Shape"></path>
                <path d="M75.861,6.411 L79.323,6.411 L79.323,8.211 L79.387,8.211 C80.0798691,6.90672337 81.4371118,6.09245469 82.914,6.095 C83.4322765,6.100534 83.9442512,6.20932013 84.42,6.415 L83.843,9.97 C83.4108149,9.81724587 82.9580479,9.7306032 82.5,9.713 C80.576,9.713 79.518,10.996 79.518,13.945 L79.518,23.4 L75.861,23.4 L75.861,6.411 Z" id="Shape"></path>
                <path d="M99.487,19.908 C98.0474511,22.4307854 95.3376393,23.9580081 92.434,23.883 C87.818,23.883 84.452,20.42 84.452,14.907 C84.452,9.394 87.818,5.931 92.274,5.931 C96.698,5.931 100,9.331 100,14.907 L100,16 L88.139,16 C88.239,18.757 89.678,20.648 92.37,20.648 C94.2898327,20.6079309 96.0244268,19.4928899 96.858,17.763 L99.487,19.908 Z M96.442,13.24 C96.313,10.964 95,9.168 92.274,9.168 C90.0249966,9.17876528 88.2001765,10.9911231 88.174,13.24 L96.442,13.24 Z" id="Shape"></path>
            </g>
        </g>
    </g>
</svg>